<svg height="999" width="999" xmlns="http://www.w3.org/2000/svg"><polyline points="343,261 347,269 352,281 356,291 359,296 359,300 361,301 361,302 365,299 371,293 376,286 379,281 383,275 386,270 388,266 388,266 " style="fill:none;stroke:#000000;stroke-width:5;" stroke-linecap="round" stroke-linejoin="round"/><polyline points="402,292 406,292 408,292 411,290 412,287 409,286 404,286 401,286 398,289 397,295 397,299 405,300 405,300 " style="fill:none;stroke:#000000;stroke-width:5;" stroke-linecap="round" stroke-linejoin="round"/><polyline points="433,288 429,288 427,288 425,289 421,295 421,297 421,299 421,300 423,301 426,301 426,301 " style="fill:none;stroke:#000000;stroke-width:5;" stroke-linecap="round" stroke-linejoin="round"/><polyline points="452,303 452,299 450,295 450,289 450,284 449,278 449,274 448,274 448,274 " style="fill:none;stroke:#000000;stroke-width:5;" stroke-linecap="round" stroke-linejoin="round"/><polyline points="443,281 445,281 450,281 454,281 457,281 458,281 458,281 " style="fill:none;stroke:#000000;stroke-width:5;" stroke-linecap="round" stroke-linejoin="round"/><polyline points="476,301 475,300 474,299 472,296 471,293 471,292 471,289 474,289 477,289 479,289 482,289 484,291 485,293 485,295 485,296 485,298 484,299 482,300 479,300 477,300 475,300 475,300 " style="fill:none;stroke:#000000;stroke-width:5;" stroke-linecap="round" stroke-linejoin="round"/><polyline points="494,299 495,298 495,292 495,286 495,284 495,283 496,289 496,292 497,292 497,293 499,292 499,289 500,287 501,286 505,284 506,283 507,282 511,282 512,282 512,282 " style="fill:none;stroke:#000000;stroke-width:5;" stroke-linecap="round" stroke-linejoin="round"/><polyline points="388,332 386,332 382,332 376,332 374,332 373,331 372,333 371,351 371,355 369,358 369,360 369,361 369,362 371,363 376,363 392,364 400,365 400,365 " style="fill:none;stroke:#000000;stroke-width:5;" stroke-linecap="round" stroke-linejoin="round"/><polyline points="372,347 378,347 378,347 " style="fill:none;stroke:#000000;stroke-width:5;" stroke-linecap="round" stroke-linejoin="round"/><polyline points="420,361 418,361 415,359 412,355 412,353 412,352 412,351 414,349 418,349 421,349 425,351 425,353 426,355 425,357 419,359 415,359 415,359 " style="fill:none;stroke:#000000;stroke-width:5;" stroke-linecap="round" stroke-linejoin="round"/><polyline points="426,360 426,358 425,355 424,352 424,349 424,345 424,344 424,341 424,339 424,337 424,335 424,333 424,331 424,330 424,330 " style="fill:none;stroke:#000000;stroke-width:5;" stroke-linecap="round" stroke-linejoin="round"/><polyline points="443,362 443,359 443,358 444,352 444,352 " style="fill:none;stroke:#000000;stroke-width:5;" stroke-linecap="round" stroke-linejoin="round"/><polyline points="447,341 447,341 " style="fill:none;stroke:#000000;stroke-width:5;" stroke-linecap="round" stroke-linejoin="round"/><polyline points="471,362 471,359 472,353 472,347 474,342 475,335 475,334 475,333 475,333 " style="fill:none;stroke:#000000;stroke-width:5;" stroke-linecap="round" stroke-linejoin="round"/><polyline points="468,342 477,342 482,342 482,342 " style="fill:none;stroke:#000000;stroke-width:5;" stroke-linecap="round" stroke-linejoin="round"/><polyline points="278,434 298,434 318,434 318,434 " style="fill:none;stroke:#FF8000;stroke-width:5;" stroke-linecap="round" stroke-linejoin="round"/><polyline points="296,422 296,431 297,437 297,443 297,447 297,450 297,451 297,452 297,452 " style="fill:none;stroke:#FF8000;stroke-width:5;" stroke-linecap="round" stroke-linejoin="round"/><polyline points="345,421 350,427 351,427 355,427 359,423 362,418 365,413 366,410 367,409 367,409 " style="fill:none;stroke:#FF8000;stroke-width:5;" stroke-linecap="round" stroke-linejoin="round"/><polyline points="383,430 383,423 383,416 383,410 383,410 " style="fill:none;stroke:#FF8000;stroke-width:5;" stroke-linecap="round" stroke-linejoin="round"/><polyline points="339,408 344,415 348,418 352,424 354,426 355,428 355,428 " style="fill:none;stroke:#FF8000;stroke-width:5;" stroke-linecap="round" stroke-linejoin="round"/><polyline points="419,408 417,408 412,408 409,408 408,409 410,415 415,418 419,422 421,425 421,426 420,429 414,430 409,430 409,430 " style="fill:none;stroke:#FF8000;stroke-width:5;" stroke-linecap="round" stroke-linejoin="round"/><polyline points="438,408 436,417 436,419 438,423 440,426 445,427 449,427 455,427 460,424 461,422 461,419 461,416 461,415 461,415 " style="fill:none;stroke:#FF8000;stroke-width:5;" stroke-linecap="round" stroke-linejoin="round"/><polyline points="471,427 473,425 476,417 479,411 482,408 482,406 484,409 486,417 488,422 489,424 491,425 491,426 491,426 " style="fill:none;stroke:#FF8000;stroke-width:5;" stroke-linecap="round" stroke-linejoin="round"/><polyline points="479,418 481,418 482,418 484,418 485,418 485,418 " style="fill:none;stroke:#FF8000;stroke-width:5;" stroke-linecap="round" stroke-linejoin="round"/><polyline points="506,413 506,417 506,420 506,422 506,424 506,426 507,427 513,427 519,427 523,427 526,428 528,428 528,428 " style="fill:none;stroke:#FF8000;stroke-width:5;" stroke-linecap="round" stroke-linejoin="round"/><polyline points="346,443 341,443 340,443 339,443 337,444 337,447 337,452 337,455 337,458 337,461 337,462 337,464 337,466 337,467 337,468 338,468 339,468 344,468 348,468 350,468 351,468 351,468 " style="fill:none;stroke:#FF8000;stroke-width:5;" stroke-linecap="round" stroke-linejoin="round"/><polyline points="339,455 340,455 341,455 341,455 " style="fill:none;stroke:#FF8000;stroke-width:5;" stroke-linecap="round" stroke-linejoin="round"/><polyline points="367,464 367,458 367,455 367,451 367,447 367,446 367,444 367,443 367,441 369,441 373,441 376,441 378,444 379,447 380,451 380,453 380,456 380,458 380,459 380,461 378,462 376,463 375,464 373,464 369,464 367,464 366,464 365,464 365,464 " style="fill:none;stroke:#FF8000;stroke-width:5;" stroke-linecap="round" stroke-linejoin="round"/><polyline points="399,462 399,460 399,457 400,454 400,451 400,448 400,446 401,444 401,443 401,443 " style="fill:none;stroke:#FF8000;stroke-width:5;" stroke-linecap="round" stroke-linejoin="round"/><polyline points="428,459 428,455 428,451 427,449 427,446 427,444 427,443 426,443 425,443 422,443 419,443 418,443 417,441 418,441 423,441 429,441 434,441 437,441 440,441 440,441 " style="fill:none;stroke:#FF8000;stroke-width:5;" stroke-linecap="round" stroke-linejoin="round"/><polyline points="457,457 455,455 454,453 454,449 454,444 454,443 457,440 460,440 466,441 471,445 476,454 476,458 476,460 472,461 470,461 467,461 461,461 459,459 458,458 457,458 457,458 " style="fill:none;stroke:#FF8000;stroke-width:5;" stroke-linecap="round" stroke-linejoin="round"/><polyline points="494,465 494,464 494,459 494,453 494,445 495,443 499,443 505,443 508,443 512,447 512,451 512,452 508,452 503,452 500,452 497,452 496,452 495,452 495,453 507,462 514,466 517,468 517,468 " style="fill:none;stroke:#FF8000;stroke-width:5;" stroke-linecap="round" stroke-linejoin="round"/></svg>